<?xml version="1.0" encoding="utf-8"?>
<!-- Generator: Adobe Illustrator 19.2.1, SVG Export Plug-In . SVG Version: 6.00 Build 0)  -->
<svg version="1.1" id="Isolation_Mode" xmlns="http://www.w3.org/2000/svg" xmlns:xlink="http://www.w3.org/1999/xlink" x="0px"
	 y="0px" viewBox="0 0 378.3 170.7" style="enable-background:new 0 0 378.3 170.7;" xml:space="preserve">
<style type="text/css">
	.st0{fill:#888888;}
</style>
<path class="st0" d="M3,78.4c-3.9,3.8-3.9,10.1-0.2,13.8l75.6,75.6c2,1.9,4.4,2.9,7,2.9s5.1-1,7-2.9c3.8-3.8,3.8-10,0-13.8
	L33.6,95.2h335c5.4,0,9.8-4.4,9.8-9.8s-4.4-9.8-9.8-9.8H33.5l58.9-58.9c3.8-3.8,3.8-10,0-13.8c-3.8-3.9-10-3.9-13.8,0L3,78.4L3,78.4
	z"/>
</svg>
